<svg id="Layer_1" data-name="Layer 1" xmlns="http://www.w3.org/2000/svg" xmlns:xlink="http://www.w3.org/1999/xlink" viewBox="0 0 359 177">
  <defs>
    <style>
      .cls-1, .cls-5 {
        fill: none;
      }

      .cls-2 {
        fill: #fff;
      }

      .cls-3 {
        clip-path: url(#clip-path);
      }

      .cls-4 {
        fill: #00395c;
      }

      .cls-10, .cls-11, .cls-12, .cls-4, .cls-6, .cls-7, .cls-8, .cls-9 {
        fill-rule: evenodd;
      }

      .cls-5, .cls-8 {
        stroke: #fff;
        stroke-linejoin: round;
      }

      .cls-6 {
        fill: #00aeef;
      }

      .cls-7 {
        fill: #bfebfb;
      }

      .cls-8 {
        fill: #809cae;
      }

      .cls-9 {
        fill: #ffc810;
      }

      .cls-10 {
        fill: #9d063b;
      }

      .cls-11 {
        fill: #bfafa4;
      }

      .cls-12 {
        fill: #eb9223;
      }

      .cls-13 {
        font-size: 8px;
        fill: #1e1e1e;
        font-family: ExpertSans-Regular, Expert Sans;
      }

      .cls-14 {
        letter-spacing: -0.05em;
      }

      .cls-15 {
        letter-spacing: -0.04em;
      }

      .cls-16 {
        letter-spacing: -0.06em;
      }
    </style>
    <clipPath id="clip-path" transform="translate(-0.29 -0.78)">
      <rect id="SVGID" class="cls-1" x="0.29" y="0.78" width="359" height="177"/>
    </clipPath>
  </defs>
  <title>chart-2</title>
  <g>
    <rect class="cls-2" width="359" height="177"/>
    <g class="cls-3">
      <rect class="cls-2" x="125.2" y="35.32" width="111.59" height="111.6"/>
    </g>
    <g class="cls-3">
      <path class="cls-4" d="M181.29,36.1a55.79,55.79,0,0,1,25.93,6.39L181.29,91.89Z" transform="translate(-0.29 -0.78)"/>
      <path class="cls-5" d="M181.29,36.1a55.79,55.79,0,0,1,25.93,6.39L181.29,91.89Z" transform="translate(-0.29 -0.78)"/>
    </g>
    <g class="cls-3">
      <path class="cls-6" d="M207.22,42.49a55.8,55.8,0,0,1,29.46,42.68l-55.39,6.73Z" transform="translate(-0.29 -0.78)"/>
      <path class="cls-5" d="M207.22,42.49a55.8,55.8,0,0,1,29.46,42.68l-55.39,6.73Z" transform="translate(-0.29 -0.78)"/>
    </g>
    <g class="cls-3">
      <path class="cls-7" d="M236.68,85.17a55.79,55.79,0,0,1-9.47,38.42l-45.92-31.7Z" transform="translate(-0.29 -0.78)"/>
      <path class="cls-5" d="M236.68,85.17a55.8,55.8,0,0,1-9.47,38.42l-45.92-31.7Z" transform="translate(-0.29 -0.78)"/>
    </g>
    <g class="cls-3">
      <path class="cls-8" d="M227.21,123.59a55.8,55.8,0,0,1-59.27,22.48l13.35-54.18Z" transform="translate(-0.29 -0.78)"/>
      <path class="cls-5" d="M227.21,123.59a55.8,55.8,0,0,1-59.27,22.48l13.35-54.18Z" transform="translate(-0.29 -0.78)"/>
    </g>
    <g class="cls-3">
      <path class="cls-9" d="M167.94,146.07a55.8,55.8,0,0,1-42-47.45l55.39-6.73Z" transform="translate(-0.29 -0.78)"/>
      <path class="cls-5" d="M167.94,146.07a55.8,55.8,0,0,1-42-47.45l55.39-6.73Z" transform="translate(-0.29 -0.78)"/>
    </g>
    <g class="cls-3">
      <path class="cls-10" d="M125.9,98.62a55.74,55.74,0,0,1,0-13.45l55.39,6.73Z" transform="translate(-0.29 -0.78)"/>
      <path class="cls-5" d="M125.9,98.62a55.84,55.84,0,0,1,0-13.45l55.39,6.73Z" transform="translate(-0.29 -0.78)"/>
    </g>
    <g class="cls-3">
      <path class="cls-11" d="M125.9,85.17a55.82,55.82,0,0,1,5.37-18l50,24.73Z" transform="translate(-0.29 -0.78)"/>
      <path class="cls-5" d="M125.9,85.17a55.83,55.83,0,0,1,5.37-18l50,24.73Z" transform="translate(-0.29 -0.78)"/>
    </g>
    <g class="cls-3">
      <path class="cls-12" d="M131.27,67.16a55.8,55.8,0,0,1,50-31.07v55.8Z" transform="translate(-0.29 -0.78)"/>
      <path class="cls-5" d="M131.27,67.16a55.8,55.8,0,0,1,50-31.07v55.8Z" transform="translate(-0.29 -0.78)"/>
    </g>
    <g class="cls-3">
      <text class="cls-13" transform="translate(193.99 22.07)">Series 1 </text>
    </g>
    <g class="cls-3">
      <text class="cls-13" transform="translate(201.59 31.07)">8% </text>
    </g>
    <g class="cls-3">
      <text class="cls-13" transform="translate(232.58 48.89)">Series 2 </text>
    </g>
    <g class="cls-3">
      <text class="cls-13" transform="translate(238.15 57.89)"><tspan class="cls-14">1</tspan><tspan x="4.08" y="0">5% </tspan></text>
    </g>
    <g class="cls-3">
      <text class="cls-13" transform="translate(241.26 106.14)">Series 3 </text>
    </g>
    <g class="cls-3">
      <text class="cls-13" transform="translate(246.8 115.14)"><tspan class="cls-15">1</tspan><tspan x="4.13" y="0">2% </tspan></text>
    </g>
    <g class="cls-3">
      <text class="cls-13" transform="translate(205.12 154.88)">Series 4 </text>
    </g>
    <g class="cls-3">
      <text class="cls-13" transform="translate(210.66 163.88)"><tspan class="cls-15">1</tspan><tspan x="4.13" y="0">9% </tspan></text>
    </g>
    <g class="cls-3">
      <text class="cls-13" transform="translate(106.49 137.83)">Series 5 </text>
    </g>
    <g class="cls-3">
      <text class="cls-13" transform="translate(112.03 146.83)"><tspan class="cls-15">1</tspan><tspan x="4.13" y="0">9% </tspan></text>
    </g>
    <g class="cls-3">
      <text class="cls-13" transform="translate(91.74 89.52)">Series 6 </text>
    </g>
    <g class="cls-3">
      <text class="cls-13" transform="translate(99.34 98.52)">4% </text>
    </g>
    <g class="cls-3">
      <text class="cls-13" transform="translate(95.85 64.69)">Series 7 </text>
    </g>
    <g class="cls-3">
      <text class="cls-13" transform="translate(103.45 73.69)">5% </text>
    </g>
    <g class="cls-3">
      <text class="cls-13" transform="translate(119.44 29.12)">Series 8 </text>
    </g>
    <g class="cls-3">
      <text class="cls-13" transform="translate(125.05 38.12)"><tspan class="cls-16">1</tspan><tspan x="3.98" y="0">8% </tspan></text>
    </g>
  </g>
</svg>
