<svg id="Layer_1" data-name="Layer 1" xmlns="http://www.w3.org/2000/svg" xmlns:xlink="http://www.w3.org/1999/xlink" viewBox="0 0 359 177">
  <defs>
    <style>
      .cls-1, .cls-10, .cls-6 {
        fill: none;
      }

      .cls-2 {
        fill: #fff;
      }

      .cls-3 {
        clip-path: url(#clip-path);
      }

      .cls-4 {
        clip-path: url(#clip-path-2);
      }

      .cls-5 {
        fill: #00395c;
      }

      .cls-6 {
        stroke: #fff;
      }

      .cls-10, .cls-6 {
        stroke-linejoin: round;
      }

      .cls-7 {
        fill: #00aeef;
      }

      .cls-8 {
        fill: #bfebfb;
      }

      .cls-9 {
        fill: #ffbe10;
      }

      .cls-10 {
        stroke: #4d4e4e;
      }

      .cls-11 {
        font-size: 8px;
        fill: #1e1e1e;
        font-family: ExpertSans-Regular, Expert Sans;
      }

      .cls-12 {
        letter-spacing: -0.04em;
      }

      .cls-13 {
        letter-spacing: -0.02em;
      }

      .cls-14 {
        letter-spacing: -0.02em;
      }

      .cls-15 {
        letter-spacing: -0.01em;
      }

      .cls-16 {
        letter-spacing: -0.03em;
      }

      .cls-17 {
        fill: #9d063b;
      }

      .cls-18 {
        clip-path: url(#clip-path-34);
      }

      .cls-19 {
        fill: #ffc810;
      }

      .cls-20 {
        clip-path: url(#clip-path-36);
      }

      .cls-21 {
        letter-spacing: -0.08em;
      }

      .cls-22 {
        clip-path: url(#clip-path-38);
      }

      .cls-23 {
        clip-path: url(#clip-path-40);
      }
    </style>
    <clipPath id="clip-path" transform="translate(-0.19 -1.09)">
      <rect id="SVGID" class="cls-1" x="0.19" y="1.09" width="359" height="177"/>
    </clipPath>
    <clipPath id="clip-path-2" transform="translate(-0.19 -1.09)">
      <rect id="SVGID-2" data-name="SVGID" class="cls-1" x="28.19" y="25.09" width="303" height="108"/>
    </clipPath>
    <clipPath id="clip-path-34" transform="translate(-0.19 -1.09)">
      <rect id="SVGID-34" data-name="SVGID" class="cls-1" x="46.35" y="161.97" width="126" height="14"/>
    </clipPath>
    <clipPath id="clip-path-36" transform="translate(-0.19 -1.09)">
      <rect id="SVGID-36" data-name="SVGID" class="cls-1" x="110.61" y="161.97" width="116.37" height="14"/>
    </clipPath>
    <clipPath id="clip-path-38" transform="translate(-0.19 -1.09)">
      <rect id="SVGID-38" data-name="SVGID" class="cls-1" x="165.23" y="161.97" width="126" height="14"/>
    </clipPath>
    <clipPath id="clip-path-40" transform="translate(-0.19 -1.09)">
      <rect id="SVGID-40" data-name="SVGID" class="cls-1" x="225.36" y="161.97" width="126" height="14"/>
    </clipPath>
  </defs>
  <title>chart-3</title>
  <g>
    <rect class="cls-2" width="359" height="177"/>
    <g class="cls-3">
      <rect class="cls-2" x="28.12" y="24.97" width="302.36" height="107.11"/>
    </g>
    <g class="cls-4">
      <polygon class="cls-5" points="28 114 89 118 149 114 210 115 270 114 330 120 330 132 28 132 28 114"/>
      <polygon class="cls-6" points="28 114 89 118 149 114 210 115 270 114 330 120 330 132 28 132 28 114"/>
    </g>
    <g class="cls-4">
      <polygon class="cls-7" points="28 102 89 94 149 96 210 85 270 84 330 114 330 120 270 114 210 115 149 114 89 118 28 114 28 102"/>
      <polygon class="cls-6" points="28 102 89 94 149 96 210 85 270 84 330 114 330 120 270 114 210 115 149 114 89 118 28 114 28 102"/>
    </g>
    <g class="cls-4">
      <polygon class="cls-8" points="28 88 89 73 149 79 210 76 270 65 330 106 330 114 270 84 210 85 149 96 89 94 28 102 28 88"/>
      <polygon class="cls-6" points="28 88 89 73 149 79 210 76 270 65 330 106 330 114 270 84 210 85 149 96 89 94 28 102 28 88"/>
    </g>
    <g class="cls-4">
      <polygon class="cls-9" points="28 76 89 55 149 55 210 46 270 36 330 88 330 105.9 270 65 210 76 149 79 89 73 28 88 28 76"/>
      <polygon class="cls-6" points="28 76 89 55 149 55 210 46 270 36 330 88 330 105.9 270 65 210 76 149 79 89 73 28 88 28 76"/>
    </g>
    <g class="cls-3">
      <line class="cls-10" x1="28.12" y1="132.08" x2="28.12" y2="24.97"/>
    </g>
    <g class="cls-3">
      <path class="cls-10" d="M26.19,26.09h2m-2,12h2m-2,12h2m-2,12h2m-2,12h2m-2,11h2m-2,12h2m-2,12h2m-2,12h2m-2,12h2" transform="translate(-0.19 -1.09)"/>
    </g>
    <g class="cls-3">
      <line class="cls-10" x1="28.12" y1="132.08" x2="330.48" y2="132.08"/>
    </g>
    <g class="cls-3">
      <path class="cls-10" d="M330.19,133.09v2m-60-2v2m-60-2v2m-61-2v2m-60-2v2m-61-2v2" transform="translate(-0.19 -1.09)"/>
    </g>
    <g class="cls-3">
      <text class="cls-11" transform="translate(17.17 135.28)">0 </text>
    </g>
    <g class="cls-3">
      <text class="cls-11" transform="translate(13.17 123.38)"><tspan class="cls-12">1</tspan><tspan x="4.13" y="0">0 </tspan></text>
    </g>
    <g class="cls-3">
      <text class="cls-11" transform="translate(13.17 111.48)"><tspan class="cls-13">2</tspan><tspan x="4.27" y="0">0 </tspan></text>
    </g>
    <g class="cls-3">
      <text class="cls-11" transform="translate(13.17 99.58)"><tspan class="cls-14">3</tspan><tspan x="4.32" y="0">0 </tspan></text>
    </g>
    <g class="cls-3">
      <text class="cls-11" transform="translate(13.17 87.68)">40 </text>
    </g>
    <g class="cls-3">
      <text class="cls-11" transform="translate(13.17 75.78)">50 </text>
    </g>
    <g class="cls-3">
      <text class="cls-11" transform="translate(13.17 63.88)">60 </text>
    </g>
    <g class="cls-3">
      <text class="cls-11" transform="translate(13.17 51.98)">70 </text>
    </g>
    <g class="cls-3">
      <text class="cls-11" transform="translate(13.17 40.07)"><tspan class="cls-15">8</tspan><tspan x="4.37" y="0">0 </tspan></text>
    </g>
    <g class="cls-3">
      <text class="cls-11" transform="translate(13.17 28.17)">90 </text>
    </g>
    <g class="cls-3">
      <text class="cls-11" transform="translate(6.04 144.14)"> </text>
    </g>
    <g class="cls-3">
      <text class="cls-11" transform="translate(21.35 153.14)">Series 1 </text>
    </g>
    <g class="cls-3">
      <text class="cls-11" transform="translate(66.11 144.14)"> </text>
    </g>
    <g class="cls-3">
      <text class="cls-11" transform="translate(81.42 153.14)">Series 2 </text>
    </g>
    <g class="cls-3">
      <text class="cls-11" transform="translate(126.58 144.14)"> </text>
    </g>
    <g class="cls-3">
      <text class="cls-11" transform="translate(141.9 153.14)">Series 3 </text>
    </g>
    <g class="cls-3">
      <text class="cls-11" transform="translate(187.05 144.14)"> </text>
    </g>
    <g class="cls-3">
      <text class="cls-11" transform="translate(202.37 153.14)">Series 4 </text>
    </g>
    <g class="cls-3">
      <text class="cls-11" transform="translate(247.53 144.14)"> </text>
    </g>
    <g class="cls-3">
      <text class="cls-11" transform="translate(262.84 153.14)">Series 5 </text>
    </g>
    <g class="cls-3">
      <text class="cls-11" transform="translate(308 144.14)"> </text>
    </g>
    <g class="cls-3">
      <text class="cls-11" transform="translate(323.31 153.14)">Series 6 </text>
    </g>
    <g class="cls-3">
      <text class="cls-11" transform="translate(3.43 9.73)">Axis <tspan class="cls-16" x="16.62" y="0">T</tspan><tspan x="21.08" y="0">itle </tspan></text>
    </g>
    <g class="cls-3">
      <rect class="cls-17" x="95.37" y="165.23" width="3.53" height="3.53"/>
      <rect class="cls-6" x="95.37" y="165.23" width="3.53" height="3.53"/>
    </g>
    <g class="cls-18">
      <text class="cls-11" transform="translate(100.16 171.08)"><tspan class="cls-13">2</tspan><tspan class="cls-12" x="4.27" y="0">01</tspan><tspan x="12.53" y="0">2 </tspan></text>
    </g>
    <g class="cls-3">
      <rect class="cls-19" x="155.49" y="165.23" width="3.53" height="3.53"/>
      <rect class="cls-6" x="155.49" y="165.23" width="3.53" height="3.53"/>
    </g>
    <g class="cls-20">
      <text class="cls-11" transform="translate(160.29 171.08)"><tspan class="cls-13">2</tspan><tspan class="cls-12" x="4.27" y="0">0</tspan><tspan class="cls-21" x="8.4" y="0">1</tspan><tspan x="12.2" y="0">1 </tspan></text>
    </g>
    <g class="cls-3">
      <rect class="cls-7" x="214.24" y="165.23" width="3.53" height="3.53"/>
      <rect class="cls-6" x="214.24" y="165.23" width="3.53" height="3.53"/>
    </g>
    <g class="cls-22">
      <text class="cls-11" transform="translate(219.04 171.08)"><tspan class="cls-13">2</tspan><tspan class="cls-12" x="4.27" y="0">01</tspan><tspan x="12.53" y="0">0 </tspan></text>
    </g>
    <g class="cls-3">
      <rect class="cls-5" x="274.37" y="165.23" width="3.53" height="3.53"/>
      <rect class="cls-6" x="274.37" y="165.23" width="3.53" height="3.53"/>
    </g>
    <g class="cls-23">
      <text class="cls-11" transform="translate(279.17 171.08)"><tspan class="cls-13">2</tspan><tspan x="4.27" y="0">009 </tspan></text>
    </g>
  </g>
</svg>
