<svg id="Layer_1" data-name="Layer 1" xmlns="http://www.w3.org/2000/svg" xmlns:xlink="http://www.w3.org/1999/xlink" viewBox="0 0 359 177">
  <defs>
    <style>
      .cls-1, .cls-15, .cls-6 {
        fill: none;
      }

      .cls-2 {
        fill: #fff;
      }

      .cls-3 {
        clip-path: url(#clip-path);
      }

      .cls-4 {
        clip-path: url(#clip-path-2);
      }

      .cls-5 {
        fill: #00395c;
      }

      .cls-10, .cls-6 {
        stroke: #fff;
      }

      .cls-10, .cls-15, .cls-6 {
        stroke-linejoin: round;
      }

      .cls-7 {
        fill: #00aeef;
      }

      .cls-8 {
        fill: #bfebfb;
      }

      .cls-10, .cls-9 {
        fill: #809cae;
      }

      .cls-11 {
        fill: #ffc810;
      }

      .cls-12 {
        fill: #9d063b;
      }

      .cls-13 {
        fill: #bfafa4;
      }

      .cls-14 {
        fill: #eb9223;
      }

      .cls-15 {
        stroke: #4d4e4e;
      }

      .cls-16 {
        font-size: 8px;
        fill: #1e1e1e;
        font-family: ExpertSans-Regular, Expert Sans;
      }

      .cls-17 {
        letter-spacing: -0.02em;
      }

      .cls-18 {
        letter-spacing: -0.01em;
      }

      .cls-19 {
        letter-spacing: -0.04em;
      }

      .cls-20 {
        letter-spacing: -0.06em;
      }

      .cls-21 {
        letter-spacing: -0.03em;
      }

      .cls-22 {
        fill: #1ebaed;
      }
    </style>
    <clipPath id="clip-path" transform="translate(-0.29 -1)">
      <rect id="SVGID" class="cls-1" x="0.29" y="1" width="359" height="177"/>
    </clipPath>
    <clipPath id="clip-path-2" transform="translate(-0.29 -1)">
      <rect id="SVGID-2" data-name="SVGID" class="cls-1" x="24.29" y="24" width="334" height="123"/>
    </clipPath>
  </defs>
  <title>chart-1</title>
  <g>
    <rect class="cls-2" width="359" height="177"/>
    <g class="cls-3">
      <rect class="cls-2" x="24.94" y="23.87" width="333.06" height="121.41"/>
    </g>
    <g class="cls-4">
      <path class="cls-5" d="M289.29,133h55v13h-55Zm-84,5h56v8h-56Zm-83-2h56v10h-56Zm-83,2h55v8h-55Z" transform="translate(-0.29 -1)"/>
      <path class="cls-6" d="M289.29,133h55v13h-55Zm-84,5h56v8h-56Zm-83-2h56v10h-56Zm-83,2h55v8h-55Z" transform="translate(-0.29 -1)"/>
    </g>
    <g class="cls-4">
      <path class="cls-7" d="M289.29,123h55v10h-55Zm-84,2h56v13h-56Zm-83-4h56v15h-56Zm-83-1h55v18h-55Z" transform="translate(-0.29 -1)"/>
      <path class="cls-6" d="M289.29,123h55v10h-55Zm-84,2h56v13h-56Zm-83-4h56v15h-56Zm-83-1h55v18h-55Z" transform="translate(-0.29 -1)"/>
    </g>
    <g class="cls-4">
      <path class="cls-8" d="M289.29,110h55v13h-55Zm-84-3h56v18h-56Zm-83,1h56v13h-56Zm-83-1h55v13h-55Z" transform="translate(-0.29 -1)"/>
      <path class="cls-6" d="M289.29,110h55v13h-55Zm-84-3h56v18h-56Zm-83,1h56v13h-56Zm-83-1h55v13h-55Z" transform="translate(-0.29 -1)"/>
    </g>
    <g class="cls-4">
      <path class="cls-9" d="M289.29,97h55v13h-55Zm-84-11h56v21h-56Zm-83,15h56v7h-56Zm-83-15h55v21h-55Z" transform="translate(-0.29 -1)"/>
      <path class="cls-10" d="M289.29,97h55v13h-55Zm-84-11h56v21h-56Zm-83,15h56v7h-56Zm-83-15h55v21h-55Z" transform="translate(-0.29 -1)"/>
    </g>
    <g class="cls-4">
      <path class="cls-11" d="M289.29,84h55V97h-55Zm-84-20h56V86h-56Zm-83,23h56v14h-56Zm-83-23h55V86h-55Z" transform="translate(-0.29 -1)"/>
      <path class="cls-6" d="M289.29,84h55V97h-55Zm-84-20h56V86h-56Zm-83,23h56v14h-56Zm-83-23h55V86h-55Z" transform="translate(-0.29 -1)"/>
    </g>
    <g class="cls-4">
      <path class="cls-12" d="M289.29,75h55v9h-55Zm-84-24h56V64h-56Zm-83,30h56v6h-56Zm-83-21h55v4h-55Z" transform="translate(-0.29 -1)"/>
      <path class="cls-6" d="M289.29,75h55v9h-55Zm-84-24h56V64h-56Zm-83,30h56v6h-56Zm-83-21h55v4h-55Z" transform="translate(-0.29 -1)"/>
    </g>
    <g class="cls-4">
      <path class="cls-13" d="M289.29,65h55V75h-55Zm-84-18h56v4h-56Zm-83,26h56v8h-56Zm-83-20h55v7h-55Z" transform="translate(-0.29 -1)"/>
      <path class="cls-6" d="M289.29,65h55V75h-55Zm-84-18h56v4h-56Zm-83,26h56v8h-56Zm-83-20h55v7h-55Z" transform="translate(-0.29 -1)"/>
    </g>
    <g class="cls-4">
      <path class="cls-14" d="M289.29,52h55V65h-55Zm-84-12h56v7h-56Zm-83,15h56V73h-56Zm-83-21h55V53h-55Z" transform="translate(-0.29 -1)"/>
      <path class="cls-6" d="M289.29,52h55V65h-55Zm-84-12h56v7h-56Zm-83,15h56V73h-56Zm-83-21h55V53h-55Z" transform="translate(-0.29 -1)"/>
    </g>
    <g class="cls-3">
      <line class="cls-15" x1="24.94" y1="145.28" x2="24.94" y2="23.87"/>
    </g>
    <g class="cls-3">
      <path class="cls-15" d="M23.29,25h1.94M23.29,42h1.94M23.29,60h1.94M23.29,77h1.94M23.29,94h1.94m-1.94,18h1.94m-1.94,17h1.94m-1.94,17h1.94" transform="translate(-0.29 -1)"/>
    </g>
    <g class="cls-3">
      <line class="cls-15" x1="24.94" y1="145.28" x2="358" y2="145.28"/>
    </g>
    <g class="cls-3">
      <path class="cls-15" d="M358.29,146v2m-83-2v2m-84-2v2m-83-2v2m-83-2v2" transform="translate(-0.29 -1)"/>
    </g>
    <g class="cls-3">
      <text class="cls-16" transform="translate(13.99 148.48)">0 </text>
    </g>
    <g class="cls-3">
      <text class="cls-16" transform="translate(9.99 131.14)"><tspan class="cls-17">2</tspan><tspan x="4.27" y="0">0 </tspan></text>
    </g>
    <g class="cls-3">
      <text class="cls-16" transform="translate(9.99 113.8)">40 </text>
    </g>
    <g class="cls-3">
      <text class="cls-16" transform="translate(9.99 96.45)">60 </text>
    </g>
    <g class="cls-3">
      <text class="cls-16" transform="translate(9.99 79.11)"><tspan class="cls-18">8</tspan><tspan x="4.37" y="0">0 </tspan></text>
    </g>
    <g class="cls-3">
      <text class="cls-16" transform="translate(4.99 61.76)"><tspan class="cls-19">1</tspan><tspan x="4.13" y="0">00 </tspan></text>
    </g>
    <g class="cls-3">
      <text class="cls-16" transform="translate(5.99 44.42)"><tspan class="cls-19">1</tspan><tspan class="cls-17" x="4.13" y="0">2</tspan><tspan x="8.4" y="0">0 </tspan></text>
    </g>
    <g class="cls-3">
      <text class="cls-16" transform="translate(5.99 27.07)"><tspan class="cls-20">1</tspan><tspan x="3.98" y="0">40 </tspan></text>
    </g>
    <g class="cls-3">
      <text class="cls-16" transform="translate(57.64 157.34)"><tspan class="cls-17">2</tspan><tspan x="4.27" y="0">006 </tspan></text>
    </g>
    <g class="cls-3">
      <text class="cls-16" transform="translate(141 157.34)"><tspan class="cls-17">2</tspan><tspan x="4.27" y="0">0</tspan><tspan class="cls-17" x="8.73" y="0">0</tspan><tspan x="13" y="0">7 </tspan></text>
    </g>
    <g class="cls-3">
      <text class="cls-16" transform="translate(224.22 157.34)"><tspan class="cls-17">2</tspan><tspan x="4.27" y="0">0</tspan><tspan class="cls-18" x="8.73" y="0">0</tspan><tspan x="13.1" y="0">8 </tspan></text>
    </g>
    <g class="cls-3">
      <text class="cls-16" transform="translate(307.44 157.34)"><tspan class="cls-17">2</tspan><tspan x="4.27" y="0">009 </tspan></text>
    </g>
    <g class="cls-3">
      <text class="cls-16" transform="translate(7.18 13.52)">Axis <tspan class="cls-21" x="16.62" y="0">Title </tspan></text>
    </g>
    <g class="cls-3">
      <rect class="cls-14" x="42.52" y="165.73" width="3.53" height="3.53"/>
      <rect class="cls-6" x="42.52" y="165.73" width="3.53" height="3.53"/>
    </g>
    <g class="cls-3">
      <text class="cls-16" transform="translate(47.32 171.58)">Series 8 </text>
    </g>
    <g class="cls-3">
      <rect class="cls-13" x="76.81" y="165.73" width="3.53" height="3.53"/>
      <rect class="cls-6" x="76.81" y="165.73" width="3.53" height="3.53"/>
    </g>
    <g class="cls-3">
      <text class="cls-16" transform="translate(81.61 171.58)">Series 7 </text>
    </g>
    <g class="cls-3">
      <rect class="cls-12" x="111.1" y="165.73" width="3.53" height="3.53"/>
      <rect class="cls-6" x="111.1" y="165.73" width="3.53" height="3.53"/>
    </g>
    <g class="cls-3">
      <text class="cls-16" transform="translate(115.9 171.58)">Series 6 </text>
    </g>
    <g class="cls-3">
      <rect class="cls-11" x="145.39" y="165.73" width="3.53" height="3.53"/>
      <rect class="cls-6" x="145.39" y="165.73" width="3.53" height="3.53"/>
    </g>
    <g class="cls-3">
      <text class="cls-16" transform="translate(150.19 171.58)">Series 5 </text>
    </g>
    <g class="cls-3">
      <rect class="cls-8" x="179.68" y="165.73" width="3.53" height="3.53"/>
      <rect class="cls-6" x="179.68" y="165.73" width="3.53" height="3.53"/>
    </g>
    <g class="cls-3">
      <text class="cls-16" transform="translate(184.48 171.58)">Series 4 </text>
    </g>
    <g class="cls-3">
      <rect class="cls-7" x="213.97" y="165.73" width="3.53" height="3.53"/>
      <rect class="cls-6" x="213.97" y="165.73" width="3.53" height="3.53"/>
    </g>
    <g class="cls-3">
      <text class="cls-16" transform="translate(218.76 171.58)">Series 3 </text>
    </g>
    <g class="cls-3">
      <rect class="cls-22" x="248.26" y="165.73" width="3.53" height="3.53"/>
      <rect class="cls-6" x="248.26" y="165.73" width="3.53" height="3.53"/>
    </g>
    <g class="cls-3">
      <text class="cls-16" transform="translate(253.05 171.58)">Series 2 </text>
    </g>
    <g class="cls-3">
      <rect class="cls-5" x="282.55" y="165.73" width="3.53" height="3.53"/>
      <rect class="cls-6" x="282.55" y="165.73" width="3.53" height="3.53"/>
    </g>
    <g class="cls-3">
      <text class="cls-16" transform="translate(287.34 171.58)">Series 1 </text>
    </g>
  </g>
</svg>
