<svg id="Layer_1" data-name="Layer 1" xmlns="http://www.w3.org/2000/svg" viewBox="0 0 36 36"><defs><style>.cls-1{fill:none;stroke:#007eb6;stroke-miterlimit:10;}.cls-2{fill:#007eb6;}</style></defs><title>icn-2</title><circle class="cls-1" cx="18" cy="18" r="16.42"/><path class="cls-2" d="M30.92,18c-.23-.3-5.82-7.31-12.92-7.31S5.31,17.66,5.08,18l-.41.53.42.52c.23.29,5.82,7.2,12.92,7.2S30.68,19.3,30.92,19l.42-.52ZM18,24.21a5.78,5.78,0,1,1,5.78-5.78A5.78,5.78,0,0,1,18,24.21ZM6.93,18.48a21.23,21.23,0,0,1,6.76-5.12,6.65,6.65,0,0,0,0,10.18A21.24,21.24,0,0,1,6.93,18.48Zm15.35,5.06a6.65,6.65,0,0,0,0-10.18,21.32,21.32,0,0,1,6.76,5.12A21.17,21.17,0,0,1,22.28,23.54Z"/><circle class="cls-2" cx="18" cy="18.43" r="2.22"/></svg>