<?xml version="1.0" encoding="utf-8"?>
<!-- Generator: Adobe Illustrator 20.1.0, SVG Export Plug-In . SVG Version: 6.00 Build 0)  -->
<svg version="1.1" id="Layer_2" xmlns="http://www.w3.org/2000/svg" xmlns:xlink="http://www.w3.org/1999/xlink" x="0px" y="0px"
	 viewBox="0 0 36 36" style="enable-background:new 0 0 36 36;" xml:space="preserve">
<style type="text/css">
	.st0{fill-rule:evenodd;clip-rule:evenodd;fill:#A6A8AB;}
</style>
<g>
	<path class="st0" d="M24.1,18.9c0.7,0,1.2-0.5,1.2-1.2c0-0.7-0.5-1.2-1.2-1.2c-0.7,0-1.2,0.5-1.2,1.2
		C22.9,18.4,23.4,18.9,24.1,18.9z M22.9,20.3v6c0,0.4-0.3,0.7-0.7,0.7h-8.8c-0.4,0-0.7-0.3-0.7-0.7v-6
		C15.6,20.3,21.3,20.3,22.9,20.3z M22.9,15.1v-3.7c0-0.4-0.3-0.7-0.7-0.7h-8.8c-0.4,0-0.7,0.3-0.7,0.7v3.7H22.9z M24.5,15.1v-4.9
		c0-0.7-0.5-1.2-1.2-1.2H12c-0.7,0-1.2,0.5-1.2,1.2v4.9H9.4c-0.9,0-1.6,0.7-1.6,1.6v5.9c0,0.9,0.7,1.6,1.6,1.6h1.4v3.3
		c0,0.7,0.5,1.2,1.2,1.2h11.3c0.7,0,1.2-0.5,1.2-1.2v-3.3h1.4c0.9,0,1.6-0.7,1.6-1.6v-5.9c0-0.9-0.7-1.6-1.6-1.6H24.5z"/>
</g>
</svg>
