<svg id="Layer_1" data-name="Layer 1" xmlns="http://www.w3.org/2000/svg" viewBox="0 0 36 36"><defs><style>.cls-1{fill:none;stroke:#007eb6;stroke-miterlimit:10;}.cls-2{fill:#007eb6;fill-rule:evenodd;}</style></defs><title>icn-3</title><circle class="cls-1" cx="18" cy="18" r="16.42"/><path class="cls-2" d="M24.08,18.49a1.21,1.21,0,1,0-1.21-1.21A1.21,1.21,0,0,0,24.08,18.49ZM22.86,19.9v6a.73.73,0,0,1-.73.73H13.32a.73.73,0,0,1-.73-.73v-6Zm0-5.21V11a.73.73,0,0,0-.73-.73H13.32a.73.73,0,0,0-.73.73v3.72Zm1.58,0V9.8a1.21,1.21,0,0,0-1.21-1.21H11.94A1.21,1.21,0,0,0,10.73,9.8v4.89H9.35a1.62,1.62,0,0,0-1.62,1.62v5.86a1.62,1.62,0,0,0,1.62,1.62h1.38v3.32a1.21,1.21,0,0,0,1.21,1.21H23.23a1.21,1.21,0,0,0,1.21-1.21V23.79h1.42a1.62,1.62,0,0,0,1.62-1.62V16.31a1.62,1.62,0,0,0-1.62-1.62Z"/></svg>