<svg id="Layer_1" data-name="Layer 1" xmlns="http://www.w3.org/2000/svg" viewBox="0 0 36 36"><defs><style>.cls-1{fill:none;stroke:#007eb6;stroke-miterlimit:10;}.cls-2{fill:#007eb6;fill-rule:evenodd;}</style></defs><title>icn-4</title><circle class="cls-1" cx="18" cy="18" r="16.42"/><path class="cls-2" d="M27.76,10.79a4.41,4.41,0,0,0-6.23,0L14.35,18a2.82,2.82,0,0,0,4,4l7.18-7.18-1.3-1.3L17,20.66a1,1,0,1,1-1.39-1.4l7.18-7.18a2.57,2.57,0,1,1,3.64,3.64l-9.87,9.87a4.16,4.16,0,1,1-5.88-5.88l10-10-1.3-1.3-10,10a6,6,0,1,0,8.47,8.47L27.76,17a4.41,4.41,0,0,0,0-6.23"/></svg>