<?xml version="1.0" encoding="utf-8"?>
<!-- Generator: Adobe Illustrator 20.1.0, SVG Export Plug-In . SVG Version: 6.00 Build 0)  -->
<svg version="1.1" id="Layer_2" xmlns="http://www.w3.org/2000/svg" xmlns:xlink="http://www.w3.org/1999/xlink" x="0px" y="0px"
	 viewBox="0 0 36 36" style="enable-background:new 0 0 36 36;" xml:space="preserve">
<style type="text/css">
	.st0{fill-rule:evenodd;clip-rule:evenodd;fill:#A6A8AB;}
</style>
<g>
	<path class="st0" d="M28,10.8c-1.7-1.7-4.5-1.7-6.2,0L14.6,18c-1.1,1.1-1.1,2.9,0,4c1.1,1.1,2.9,1.1,4,0l7.2-7.2l-1.3-1.3l-7.2,7.2
		c-0.4,0.4-1,0.4-1.4,0c-0.4-0.4-0.4-1,0-1.4l7.2-7.2c1-1,2.6-1,3.6,0c1,1,1,2.6,0,3.6l-9.9,9.9c-0.8,0.8-1.8,1.2-2.9,1.2
		c-1.1,0-2.2-0.4-2.9-1.2c-0.8-0.8-1.2-1.8-1.2-2.9c0-1.1,0.4-2.2,1.2-2.9l10-10l-1.3-1.3l-10,10c-1.1,1.1-1.8,2.6-1.8,4.2
		c0,1.6,0.6,3.1,1.8,4.2c1.1,1.1,2.6,1.8,4.2,1.8c1.6,0,3.1-0.6,4.2-1.8L28,17C29.7,15.3,29.7,12.5,28,10.8"/>
</g>
</svg>
