<svg id="Layer_1" data-name="Layer 1" xmlns="http://www.w3.org/2000/svg" viewBox="0 0 36 36"><defs><style>.cls-1{fill:none;stroke:#007eb6;stroke-miterlimit:10;}.cls-2{fill:#007eb6;}</style></defs><title>icn-1</title><circle class="cls-1" cx="18" cy="18" r="16.42"/><path class="cls-2" d="M25.44,22.49a3.17,3.17,0,0,1-3.17,3.17H13.12a3.17,3.17,0,0,1-3.17-3.17V13.34a3.17,3.17,0,0,1,3.17-3.17h2.81a.36.36,0,0,1,.07.7,7.51,7.51,0,0,0-1.46.66.46.46,0,0,1-.18,0H13.12a1.77,1.77,0,0,0-1.76,1.76v9.15a1.77,1.77,0,0,0,1.76,1.76h9.15A1.77,1.77,0,0,0,24,22.49V20.14a.36.36,0,0,1,.2-.32,2.19,2.19,0,0,0,.59-.41.36.36,0,0,1,.62.23Zm-1.62-4.08a.66.66,0,0,1-.5.21.81.81,0,0,1-.27-.06.71.71,0,0,1-.43-.65V15.8H20.86c-2.42,0-4,.46-4.82,1.44s-1.15,2.67-.81,5.2a.37.37,0,0,1-.22.37l-.13,0a.37.37,0,0,1-.29-.14,10,10,0,0,1-1.83-4.79c0-2.95.92-6.34,8.1-6.34h1.76V9.47A.71.71,0,0,1,23,8.82a.81.81,0,0,1,.27-.06.7.7,0,0,1,.5.21L28,13.2a.7.7,0,0,1,0,1Z"/></svg>