<svg id="Layer_1" data-name="Layer 1" xmlns="http://www.w3.org/2000/svg" viewBox="0 0 36 36">
  <defs>
    <style>
      .cls-1 {
        isolation: isolate;
      }

      .cls-2 {
        fill: #a6a8ab;
      }
    </style>
  </defs>
  <title>icn-1-gs</title>
  <g class="cls-1">
    <path class="cls-2" d="M25.06,22.91a3.17,3.17,0,0,1-3.17,3.17H12.74a3.17,3.17,0,0,1-3.17-3.17V13.75a3.17,3.17,0,0,1,3.17-3.17h2.81a.36.36,0,0,1,.07.7,7.54,7.54,0,0,0-1.46.66A.47.47,0,0,1,14,12H12.74A1.77,1.77,0,0,0,11,13.75v9.15a1.77,1.77,0,0,0,1.76,1.76h9.15a1.77,1.77,0,0,0,1.76-1.76V20.55a.37.37,0,0,1,.2-.32,2.19,2.19,0,0,0,.59-.41.36.36,0,0,1,.38-.09.36.36,0,0,1,.23.32Zm-1.62-4.08a.66.66,0,0,1-.5.21.84.84,0,0,1-.28-.05.71.71,0,0,1-.43-.65V16.22H20.48c-2.42,0-4,.46-4.82,1.44s-1.15,2.67-.81,5.2a.37.37,0,0,1-.22.37l-.13,0a.37.37,0,0,1-.29-.14,10,10,0,0,1-1.83-4.79c0-2.95.92-6.34,8.1-6.34h1.76V9.88a.71.71,0,0,1,.43-.65.84.84,0,0,1,.28-.05.7.7,0,0,1,.5.21l4.22,4.22a.7.7,0,0,1,0,1Z"/>
  </g>
</svg>
