<?xml version="1.0" encoding="utf-8"?>
<!-- Generator: Adobe Illustrator 21.1.0, SVG Export Plug-In . SVG Version: 6.00 Build 0)  -->
<svg version="1.1" id="Layer_1" xmlns="http://www.w3.org/2000/svg" xmlns:xlink="http://www.w3.org/1999/xlink" x="0px" y="0px"
	 viewBox="0 0 36 36" style="enable-background:new 0 0 36 36;" xml:space="preserve">
<style type="text/css">
	.st0{fill:none;stroke:#007EB6;stroke-width:1.5;stroke-miterlimit:10;}
	.st1{fill:#007EB6;}
</style>
<title>icn-3</title>
<circle class="st0" cx="18" cy="18" r="16.4"/>
<path class="st1" d="M25.9,14.7h-1.4V9.8c0-0.7-0.5-1.2-1.2-1.2H11.9c-0.7,0-1.2,0.5-1.2,1.2v4.9H9.3c-0.9,0-1.6,0.7-1.6,1.6v5.9
	c0,0.9,0.7,1.6,1.6,1.6h1.4v3.3c0,0.7,0.5,1.2,1.2,1.2h11.3c0.7,0,1.2-0.5,1.2-1.2v-3.3h1.4c0.9,0,1.6-0.7,1.6-1.6v-5.9
	C27.5,15.4,26.8,14.7,25.9,14.7z M22.9,25.9c0,0.4-0.3,0.7-0.7,0.7h-8.8c-0.4,0-0.7-0.3-0.7-0.7v-6h10.3V25.9z M22.9,14.7l-10.3,0
	V11c0-0.4,0.3-0.7,0.7-0.7h8.8c0.4,0,0.7,0.3,0.7,0.7V14.7z M24.1,18.5c-0.7,0-1.2-0.5-1.2-1.2c0-0.7,0.5-1.2,1.2-1.2
	s1.2,0.5,1.2,1.2C25.3,17.9,24.7,18.5,24.1,18.5z"/>
</svg>
