<?xml version="1.0" encoding="utf-8"?>
<!-- Generator: Adobe Illustrator 21.1.0, SVG Export Plug-In . SVG Version: 6.00 Build 0)  -->
<svg version="1.1" id="Layer_1" xmlns="http://www.w3.org/2000/svg" xmlns:xlink="http://www.w3.org/1999/xlink" x="0px" y="0px"
	 viewBox="0 0 36 36" style="enable-background:new 0 0 36 36;" xml:space="preserve">
<style type="text/css">
	.st0{fill:none;stroke:#007EB6;stroke-width:1.5;stroke-miterlimit:10;}
	.st1{enable-background:new    ;}
	.st2{fill:#007EB6;}
</style>
<title>icn-1</title>
<circle class="st0" cx="18" cy="18" r="16.4"/>
<g class="st1">
	<path class="st2" d="M27.3,23.4c0,2.1-1.7,3.8-3.8,3.8H12.6c-2.1,0-3.8-1.7-3.8-3.8V12.5c0-2.1,1.7-3.8,3.8-3.8H16
		c0.2,0,0.4,0.2,0.4,0.4c0,0.2-0.1,0.4-0.3,0.4c-0.7,0.2-1.2,0.5-1.7,0.8c-0.1,0-0.1,0.1-0.2,0.1h-1.5c-1.1,0-2.1,0.9-2.1,2.1v10.9
		c0,1.1,0.9,2.1,2.1,2.1h10.9c1.1,0,2.1-0.9,2.1-2.1v-2.8c0-0.2,0.1-0.3,0.2-0.4c0.3-0.1,0.5-0.3,0.7-0.5c0.1-0.1,0.3-0.2,0.5-0.1
		c0.2,0.1,0.3,0.2,0.3,0.4V23.4z M23.8,18.4c-0.1,0.1-0.3,0.2-0.5,0.2c-0.1,0-0.2,0-0.3-0.1c-0.3-0.1-0.4-0.4-0.4-0.6v-2.1h-1.8
		c-2.4,0-4,0.5-4.8,1.4c-0.9,1-1.2,2.7-0.8,5.2c0,0.2-0.1,0.3-0.2,0.4c0,0-0.1,0-0.1,0c-0.1,0-0.2-0.1-0.3-0.1
		c-0.1-0.1-1.8-2.6-1.8-4.8c0-2.9,0.9-6.3,8.1-6.3h1.8V9.5c0-0.3,0.2-0.5,0.4-0.6c0.1,0,0.2-0.1,0.3-0.1c0.2,0,0.4,0.1,0.5,0.2
		l4.2,4.2c0.3,0.3,0.3,0.7,0,1L23.8,18.4z"/>
</g>
</svg>
