<?xml version="1.0" encoding="utf-8"?>
<!-- Generator: Adobe Illustrator 21.1.0, SVG Export Plug-In . SVG Version: 6.00 Build 0)  -->
<svg version="1.1" id="Layer_1" xmlns="http://www.w3.org/2000/svg" xmlns:xlink="http://www.w3.org/1999/xlink" x="0px" y="0px"
	 viewBox="0 0 36 36" style="enable-background:new 0 0 36 36;" xml:space="preserve">
<style type="text/css">
	.st0{fill:none;stroke:#007EB6;stroke-width:1.5;stroke-miterlimit:10;}
	.st1{fill:#007EB6;}
</style>
<title>icn-4</title>
<circle class="st0" cx="18" cy="18" r="16.4"/>
<path class="st1" d="M27.8,10.8c-1.7-1.7-4.5-1.7-6.2,0L14.4,18c-1.1,1.1-1.1,2.9,0,4s2.9,1.1,4,0l7.2-7.2l-1.3-1.3L17,20.7
	c-0.3,0.4-0.9,0.5-1.4,0.2s-0.5-0.9-0.2-1.4c0.1-0.1,0.1-0.2,0.2-0.2l7.2-7.2c1-1,2.6-1,3.6,0c1,1,1,2.6,0,3.6l0,0l-9.9,9.9
	c-1.6,1.7-4.2,1.8-5.9,0.2c-1.7-1.6-1.8-4.2-0.2-5.9c0.1-0.1,0.1-0.1,0.2-0.2l10-10l-1.3-1.3l-10,10c-2.5,2.2-2.7,6-0.5,8.5
	s6,2.7,8.5,0.5c0.2-0.2,0.3-0.3,0.5-0.5l9.9-9.9C29.5,15.3,29.5,12.5,27.8,10.8"/>
</svg>
